<svg xmlns="http://www.w3.org/2000/svg" viewBox="0 0 64 64" role="img" aria-label="Ask Sila Anything favicon">
  <defs>
    <linearGradient id="g" x1="0" y1="0" x2="1" y2="1">
      <stop offset="0%" stop-color="#0891b2" />
      <stop offset="100%" stop-color="#0e7490" />
    </linearGradient>
  </defs>
  <rect width="64" height="64" rx="14" fill="url(#g)" />
  <path d="M18 25c0-7 5-11 14-11s14 4 14 11c0 6-4 10-11 12l-2 1v5h-6v-8l4-2c6-2 9-4 9-8s-3-6-8-6-8 3-8 7h-6zm12 27a4 4 0 1 1 8 0 4 4 0 0 1-8 0z" fill="#ecfeff" />
</svg>
